<mxfile host="app.diagrams.net" agent="Mozilla/5.0 (Windows NT 10.0; Win64; x64) AppleWebKit/537.36 (KHTML, like Gecko) Chrome/131.0.0.0 Safari/537.36 Edg/131.0.0.0" version="25.0.0">
  <diagram name="第 1 页" id="UjRPoIrHNhEZGQ0aEdOO">
    <mxGraphModel dx="1213" dy="661" grid="1" gridSize="10" guides="1" tooltips="1" connect="1" arrows="1" fold="1" page="1" pageScale="1" pageWidth="827" pageHeight="1169" math="0" shadow="0">
      <root>
        <mxCell id="0" />
        <mxCell id="1" parent="0" />
        <mxCell id="EjGCt2hHYl6hV8KBAYQ2-5" value="" style="edgeStyle=orthogonalEdgeStyle;rounded=0;orthogonalLoop=1;jettySize=auto;html=1;fillColor=#dae8fc;strokeColor=#6c8ebf;" edge="1" parent="1" source="EjGCt2hHYl6hV8KBAYQ2-1" target="EjGCt2hHYl6hV8KBAYQ2-2">
          <mxGeometry relative="1" as="geometry" />
        </mxCell>
        <mxCell id="EjGCt2hHYl6hV8KBAYQ2-1" value="开始" style="rounded=0;whiteSpace=wrap;html=1;fillColor=#dae8fc;strokeColor=#6c8ebf;" vertex="1" parent="1">
          <mxGeometry x="30" y="70" width="80" height="40" as="geometry" />
        </mxCell>
        <mxCell id="EjGCt2hHYl6hV8KBAYQ2-10" value="" style="edgeStyle=orthogonalEdgeStyle;rounded=0;orthogonalLoop=1;jettySize=auto;html=1;fillColor=#dae8fc;strokeColor=#6c8ebf;" edge="1" parent="1" source="EjGCt2hHYl6hV8KBAYQ2-2" target="EjGCt2hHYl6hV8KBAYQ2-9">
          <mxGeometry relative="1" as="geometry" />
        </mxCell>
        <mxCell id="EjGCt2hHYl6hV8KBAYQ2-14" value="" style="edgeStyle=orthogonalEdgeStyle;rounded=0;orthogonalLoop=1;jettySize=auto;html=1;fillColor=#dae8fc;strokeColor=#6c8ebf;" edge="1" parent="1" source="EjGCt2hHYl6hV8KBAYQ2-2" target="EjGCt2hHYl6hV8KBAYQ2-13">
          <mxGeometry relative="1" as="geometry">
            <Array as="points">
              <mxPoint x="215" y="170" />
            </Array>
          </mxGeometry>
        </mxCell>
        <mxCell id="EjGCt2hHYl6hV8KBAYQ2-25" value="获取cookie" style="edgeLabel;html=1;align=center;verticalAlign=middle;resizable=0;points=[];" vertex="1" connectable="0" parent="EjGCt2hHYl6hV8KBAYQ2-14">
          <mxGeometry x="-0.3825" y="2" relative="1" as="geometry">
            <mxPoint x="83" y="1" as="offset" />
          </mxGeometry>
        </mxCell>
        <mxCell id="EjGCt2hHYl6hV8KBAYQ2-2" value="用户登录" style="rounded=0;whiteSpace=wrap;html=1;fillColor=#dae8fc;strokeColor=#6c8ebf;" vertex="1" parent="1">
          <mxGeometry x="170" y="70" width="90" height="40" as="geometry" />
        </mxCell>
        <mxCell id="EjGCt2hHYl6hV8KBAYQ2-12" value="" style="edgeStyle=orthogonalEdgeStyle;rounded=0;orthogonalLoop=1;jettySize=auto;html=1;fillColor=#dae8fc;strokeColor=#6c8ebf;" edge="1" parent="1" source="EjGCt2hHYl6hV8KBAYQ2-3" target="EjGCt2hHYl6hV8KBAYQ2-8">
          <mxGeometry relative="1" as="geometry" />
        </mxCell>
        <mxCell id="EjGCt2hHYl6hV8KBAYQ2-3" value="填写用户名与密码" style="rounded=0;whiteSpace=wrap;html=1;fillColor=#dae8fc;strokeColor=#6c8ebf;" vertex="1" parent="1">
          <mxGeometry x="480" y="70" width="110" height="40" as="geometry" />
        </mxCell>
        <mxCell id="EjGCt2hHYl6hV8KBAYQ2-19" value="" style="edgeStyle=orthogonalEdgeStyle;rounded=0;orthogonalLoop=1;jettySize=auto;html=1;fillColor=#dae8fc;strokeColor=#6c8ebf;" edge="1" parent="1" source="EjGCt2hHYl6hV8KBAYQ2-8" target="EjGCt2hHYl6hV8KBAYQ2-18">
          <mxGeometry relative="1" as="geometry" />
        </mxCell>
        <mxCell id="EjGCt2hHYl6hV8KBAYQ2-24" value="Y" style="edgeLabel;html=1;align=center;verticalAlign=middle;resizable=0;points=[];" vertex="1" connectable="0" parent="EjGCt2hHYl6hV8KBAYQ2-19">
          <mxGeometry x="-0.0833" y="-3" relative="1" as="geometry">
            <mxPoint as="offset" />
          </mxGeometry>
        </mxCell>
        <mxCell id="EjGCt2hHYl6hV8KBAYQ2-21" style="edgeStyle=orthogonalEdgeStyle;rounded=0;orthogonalLoop=1;jettySize=auto;html=1;exitX=1;exitY=0.5;exitDx=0;exitDy=0;entryX=0.5;entryY=1;entryDx=0;entryDy=0;fillColor=#dae8fc;strokeColor=#6c8ebf;" edge="1" parent="1" source="EjGCt2hHYl6hV8KBAYQ2-8" target="EjGCt2hHYl6hV8KBAYQ2-20">
          <mxGeometry relative="1" as="geometry" />
        </mxCell>
        <mxCell id="EjGCt2hHYl6hV8KBAYQ2-23" value="N" style="edgeLabel;html=1;align=center;verticalAlign=middle;resizable=0;points=[];" vertex="1" connectable="0" parent="EjGCt2hHYl6hV8KBAYQ2-21">
          <mxGeometry x="-0.2667" y="-1" relative="1" as="geometry">
            <mxPoint as="offset" />
          </mxGeometry>
        </mxCell>
        <mxCell id="EjGCt2hHYl6hV8KBAYQ2-8" value="&lt;font style=&quot;font-size: 10px;&quot;&gt;用户名不存在或密码错误&lt;/font&gt;" style="rhombus;whiteSpace=wrap;html=1;fillColor=#dae8fc;strokeColor=#6c8ebf;" vertex="1" parent="1">
          <mxGeometry x="470" y="140" width="130" height="80" as="geometry" />
        </mxCell>
        <mxCell id="EjGCt2hHYl6hV8KBAYQ2-11" value="" style="edgeStyle=orthogonalEdgeStyle;rounded=0;orthogonalLoop=1;jettySize=auto;html=1;fillColor=#dae8fc;strokeColor=#6c8ebf;" edge="1" parent="1" source="EjGCt2hHYl6hV8KBAYQ2-9" target="EjGCt2hHYl6hV8KBAYQ2-3">
          <mxGeometry relative="1" as="geometry" />
        </mxCell>
        <mxCell id="EjGCt2hHYl6hV8KBAYQ2-27" value="N&lt;div&gt;&lt;br&gt;&lt;/div&gt;" style="edgeLabel;html=1;align=center;verticalAlign=middle;resizable=0;points=[];" vertex="1" connectable="0" parent="EjGCt2hHYl6hV8KBAYQ2-11">
          <mxGeometry x="-0.0533" y="3" relative="1" as="geometry">
            <mxPoint x="6" y="-17" as="offset" />
          </mxGeometry>
        </mxCell>
        <mxCell id="EjGCt2hHYl6hV8KBAYQ2-37" style="edgeStyle=orthogonalEdgeStyle;rounded=0;orthogonalLoop=1;jettySize=auto;html=1;exitX=1;exitY=1;exitDx=0;exitDy=0;" edge="1" parent="1" source="EjGCt2hHYl6hV8KBAYQ2-9" target="EjGCt2hHYl6hV8KBAYQ2-31">
          <mxGeometry relative="1" as="geometry" />
        </mxCell>
        <mxCell id="EjGCt2hHYl6hV8KBAYQ2-9" value="&lt;font&gt;cookie存在&lt;/font&gt;" style="rhombus;whiteSpace=wrap;html=1;fillColor=#dae8fc;strokeColor=#6c8ebf;" vertex="1" parent="1">
          <mxGeometry x="320" y="60" width="110" height="60" as="geometry" />
        </mxCell>
        <mxCell id="EjGCt2hHYl6hV8KBAYQ2-16" style="edgeStyle=orthogonalEdgeStyle;rounded=0;orthogonalLoop=1;jettySize=auto;html=1;exitX=1;exitY=0.5;exitDx=0;exitDy=0;entryX=0.5;entryY=1;entryDx=0;entryDy=0;fillColor=#dae8fc;strokeColor=#6c8ebf;" edge="1" parent="1" source="EjGCt2hHYl6hV8KBAYQ2-13" target="EjGCt2hHYl6hV8KBAYQ2-9">
          <mxGeometry relative="1" as="geometry" />
        </mxCell>
        <mxCell id="EjGCt2hHYl6hV8KBAYQ2-13" value="&lt;div&gt;&lt;span style=&quot;background-color: initial;&quot;&gt;cookie&lt;/span&gt;&lt;/div&gt;" style="rounded=0;whiteSpace=wrap;html=1;fillColor=#dae8fc;strokeColor=#6c8ebf;" vertex="1" parent="1">
          <mxGeometry x="250" y="150" width="90" height="40" as="geometry" />
        </mxCell>
        <mxCell id="EjGCt2hHYl6hV8KBAYQ2-32" style="edgeStyle=orthogonalEdgeStyle;rounded=0;orthogonalLoop=1;jettySize=auto;html=1;exitX=0.5;exitY=1;exitDx=0;exitDy=0;entryX=1;entryY=0.5;entryDx=0;entryDy=0;" edge="1" parent="1" source="EjGCt2hHYl6hV8KBAYQ2-18" target="EjGCt2hHYl6hV8KBAYQ2-31">
          <mxGeometry relative="1" as="geometry" />
        </mxCell>
        <mxCell id="EjGCt2hHYl6hV8KBAYQ2-18" value="&lt;font&gt;记住我&lt;/font&gt;" style="rhombus;whiteSpace=wrap;html=1;fillColor=#dae8fc;strokeColor=#6c8ebf;" vertex="1" parent="1">
          <mxGeometry x="480" y="260" width="110" height="60" as="geometry" />
        </mxCell>
        <mxCell id="EjGCt2hHYl6hV8KBAYQ2-22" style="edgeStyle=orthogonalEdgeStyle;rounded=0;orthogonalLoop=1;jettySize=auto;html=1;exitX=0.5;exitY=0;exitDx=0;exitDy=0;entryX=1;entryY=0.5;entryDx=0;entryDy=0;fillColor=#dae8fc;strokeColor=#6c8ebf;" edge="1" parent="1" source="EjGCt2hHYl6hV8KBAYQ2-20" target="EjGCt2hHYl6hV8KBAYQ2-3">
          <mxGeometry relative="1" as="geometry" />
        </mxCell>
        <mxCell id="EjGCt2hHYl6hV8KBAYQ2-20" value="改为登录错误提示" style="rounded=0;whiteSpace=wrap;html=1;fillColor=#dae8fc;strokeColor=#6c8ebf;" vertex="1" parent="1">
          <mxGeometry x="650" y="110" width="100" height="40" as="geometry" />
        </mxCell>
        <mxCell id="EjGCt2hHYl6hV8KBAYQ2-29" value="" style="endArrow=none;dashed=1;html=1;dashPattern=1 3;strokeWidth=2;rounded=0;exitX=0.5;exitY=1;exitDx=0;exitDy=0;" edge="1" parent="1" source="EjGCt2hHYl6hV8KBAYQ2-13">
          <mxGeometry width="50" height="50" relative="1" as="geometry">
            <mxPoint x="430" y="340" as="sourcePoint" />
            <mxPoint x="480" y="290" as="targetPoint" />
          </mxGeometry>
        </mxCell>
        <mxCell id="EjGCt2hHYl6hV8KBAYQ2-30" value="记录cookie" style="edgeLabel;html=1;align=center;verticalAlign=middle;resizable=0;points=[];" vertex="1" connectable="0" parent="EjGCt2hHYl6hV8KBAYQ2-29">
          <mxGeometry x="0.2959" y="2" relative="1" as="geometry">
            <mxPoint as="offset" />
          </mxGeometry>
        </mxCell>
        <mxCell id="EjGCt2hHYl6hV8KBAYQ2-36" value="" style="edgeStyle=orthogonalEdgeStyle;rounded=0;orthogonalLoop=1;jettySize=auto;html=1;fillColor=#dae8fc;strokeColor=#6c8ebf;" edge="1" parent="1" source="EjGCt2hHYl6hV8KBAYQ2-31" target="EjGCt2hHYl6hV8KBAYQ2-35">
          <mxGeometry relative="1" as="geometry" />
        </mxCell>
        <mxCell id="EjGCt2hHYl6hV8KBAYQ2-31" value="成功登录首页" style="rounded=0;whiteSpace=wrap;html=1;fillColor=#dae8fc;strokeColor=#6c8ebf;" vertex="1" parent="1">
          <mxGeometry x="300" y="310" width="120" height="60" as="geometry" />
        </mxCell>
        <mxCell id="EjGCt2hHYl6hV8KBAYQ2-34" value="Y" style="text;html=1;align=center;verticalAlign=middle;resizable=0;points=[];autosize=1;strokeColor=none;fillColor=none;" vertex="1" parent="1">
          <mxGeometry x="400" y="150" width="30" height="30" as="geometry" />
        </mxCell>
        <mxCell id="EjGCt2hHYl6hV8KBAYQ2-35" value="结束" style="rounded=0;whiteSpace=wrap;html=1;fillColor=#dae8fc;strokeColor=#6c8ebf;" vertex="1" parent="1">
          <mxGeometry x="110" y="310" width="120" height="60" as="geometry" />
        </mxCell>
      </root>
    </mxGraphModel>
  </diagram>
</mxfile>
